<svg xmlns="http://www.w3.org/2000/svg" viewBox="0 0 1200 800" width="1200" height="800">
<defs><linearGradient id="bg" x1="0" y1="0" x2="1" y2="1"><stop offset="0" stop-color="#e3efe5"/><stop offset="1" stop-color="#d4e6d8"/></linearGradient>
<radialGradient id="glow" cx=".5" cy=".45" r=".6"><stop offset="0" stop-color="#ffffff" stop-opacity=".35"/><stop offset="1" stop-color="#ffffff" stop-opacity="0"/></radialGradient><pattern id="st" width="90" height="90" patternUnits="userSpaceOnUse"><g fill="none" stroke="#0d4f2a" stroke-opacity="0.05" stroke-width="1.6"><polygon points="73.8,45.0 45.0,73.8 16.2,45.0 45.0,16.2"/><polygon points="65.4,65.4 24.6,65.4 24.6,24.6 65.4,24.6"/></g></pattern></defs>
<rect width="1200" height="800" fill="url(#bg)"/><rect width="1200" height="800" fill="url(#st)"/><ellipse cx="600" cy="440" rx="260" ry="130" fill="#f6f3ea"/><g transform="translate(600 450) scale(0.7)">
<path d="M-150 120 L120 -10 M150 120 L-120 -10" stroke="#7a5a35" stroke-width="16" stroke-linecap="round"/>
<path d="M0 10 Q-80 -40 -170 -20 L-170 70 Q-80 50 0 95 Z" fill="#0d4f2a"/>
<path d="M0 10 Q80 -40 170 -20 L170 70 Q80 50 0 95 Z" fill="#0d4f2a"/>
<path d="M0 0 Q-75 -48 -158 -30 L-158 58 Q-75 40 0 84 Z" fill="#fbf8f0"/>
<path d="M0 0 Q75 -48 158 -30 L158 58 Q75 40 0 84 Z" fill="#fbf8f0"/>
<g stroke="#c9c2b0" stroke-width="3" stroke-linecap="round">
<path d="M-140 -12 Q-75 -26 -18 6 M-140 8 Q-75 -6 -18 26 M-140 28 Q-75 14 -18 46"/>
<path d="M140 -12 Q75 -26 18 6 M140 8 Q75 -6 18 26 M140 28 Q75 14 18 46"/></g></g><g transform="translate(930.0 430.0) scale(0.9)"><path d="M-55 70 Q-55 -10 0 -12 Q55 -10 55 70 Z" fill="#169a48"/><circle cx="0" cy="-48" r="28" fill="#e9c9a6"/></g><g transform="translate(833.350642797446 557.2762723602594) scale(0.9)"><path d="M-55 70 Q-55 -10 0 -12 Q55 -10 55 70 Z" fill="#232323"/><circle cx="0" cy="-48" r="28" fill="#e9c9a6"/></g><g transform="translate(600.0152878423104 609.9999998068445) scale(0.9)"><path d="M-55 70 Q-55 -10 0 -12 Q55 -10 55 70 Z" fill="#2f7d4f"/><circle cx="0" cy="-48" r="28" fill="#e9c9a6"/></g><g transform="translate(366.67097797728206 557.2880649637849) scale(0.9)"><path d="M-55 70 Q-55 -10 0 -12 Q55 -10 55 70 Z" fill="#169a48"/><circle cx="0" cy="-48" r="28" fill="#e9c9a6"/></g><g transform="translate(270.0000014164735 430.0166776461389) scale(0.9)"><path d="M-55 70 Q-55 -10 0 -12 Q55 -10 55 70 Z" fill="#232323"/><circle cx="0" cy="-48" r="28" fill="#e9c9a6"/></g><g transform="translate(366.6277384310685 302.735521335893) scale(0.9)"><path d="M-55 70 Q-55 -10 0 -12 Q55 -10 55 70 Z" fill="#2f7d4f"/><circle cx="0" cy="-48" r="28" fill="#e9c9a6"/></g><g transform="translate(599.9541364732 250.00000173839928) scale(0.9)"><path d="M-55 70 Q-55 -10 0 -12 Q55 -10 55 70 Z" fill="#169a48"/><circle cx="0" cy="-48" r="28" fill="#e9c9a6"/></g><g transform="translate(833.3073992449332 302.70014352541796) scale(0.9)"><path d="M-55 70 Q-55 -10 0 -12 Q55 -10 55 70 Z" fill="#232323"/><circle cx="0" cy="-48" r="28" fill="#e9c9a6"/></g></svg>