<svg xmlns="http://www.w3.org/2000/svg" viewBox="0 0 1200 800" width="1200" height="800">
<defs><linearGradient id="bg" x1="0" y1="0" x2="1" y2="1"><stop offset="0" stop-color="#fff7dc"/><stop offset="1" stop-color="#e4f1dc"/></linearGradient>
<radialGradient id="glow" cx=".5" cy=".45" r=".6"><stop offset="0" stop-color="#ffffff" stop-opacity=".35"/><stop offset="1" stop-color="#ffffff" stop-opacity="0"/></radialGradient><pattern id="st" width="90" height="90" patternUnits="userSpaceOnUse"><g fill="none" stroke="#0d4f2a" stroke-opacity="0.05" stroke-width="1.6"><polygon points="73.8,45.0 45.0,73.8 16.2,45.0 45.0,16.2"/><polygon points="65.4,65.4 24.6,65.4 24.6,24.6 65.4,24.6"/></g></pattern></defs>
<rect width="1200" height="800" fill="url(#bg)"/><rect width="1200" height="800" fill="url(#st)"/><circle cx="900" cy="230" r="120" fill="#f5c84c"/><circle cx="900" cy="230" r="170" fill="#f5c84c" fill-opacity=".25"/>
<path d="M0 600 Q300 520 600 590 T1200 560 V800 H0Z" fill="#9fcf8f"/><path d="M0 660 Q300 600 650 660 T1200 640 V800 H0Z" fill="#6fb46a"/>
<g transform="translate(380 640) scale(1.3)"><path d="M-55 70 Q-55 -10 0 -12 Q55 -10 55 70 Z" fill="#169a48"/><circle cx="0" cy="-48" r="28" fill="#e9c9a6"/><path d="M-30 -62 Q0 -100 30 -62 Q34 -30 0 -22 Q-34 -30 -30 -62Z" fill="#fff"/></g><g transform="translate(520 650) scale(1.15)"><path d="M-55 70 Q-55 -10 0 -12 Q55 -10 55 70 Z" fill="#f08a3c"/><circle cx="0" cy="-48" r="28" fill="#e9c9a6"/></g><g transform="translate(650 645) scale(1.25)"><path d="M-55 70 Q-55 -10 0 -12 Q55 -10 55 70 Z" fill="#2c6fb1"/><circle cx="0" cy="-48" r="28" fill="#e9c9a6"/></g></svg>